<?xml version="1.0" encoding="UTF-8" standalone="no"?>
<!DOCTYPE svg PUBLIC "-//W3C//DTD SVG 1.1//EN" "http://www.w3.org/Graphics/SVG/1.1/DTD/svg11.dtd">
<svg version="1.1" xmlns="http://www.w3.org/2000/svg" xmlns:xlink="http://www.w3.org/1999/xlink" preserveAspectRatio="xMidYMid meet" viewBox="0 0 640 640" width="640" height="640"><defs><path d="M174.47 143.17L174.47 169.87L86.67 169.87L86.67 143.17L174.47 143.17Z" id="bGNHzQnD4"></path><path d="M186.21 205.77C180.14 205.77 172.62 179.85 168.49 176.02C163.92 171.79 151.3 168.46 151.3 161.75C151.3 148.96 161.68 143.17 174.47 143.17C187.26 143.17 197.64 153.55 197.64 166.34C197.64 179.13 199 205.77 186.21 205.77Z" id="bOTiJaISN"></path><path d="M230.12 415.42L203.64 418.81L171.17 165.14L197.65 161.75L230.12 415.42Z" id="d1zHdrMyFL"></path><path d="M521.43 201.57L521.43 228.26L200.65 228.26L200.65 201.57L521.43 201.57Z" id="agMvTNpiD"></path><path d="M521.43 247.91C515.03 247.91 525.62 228.93 521.43 224.74C517.23 220.54 498.26 231.13 498.26 224.74C498.26 211.95 508.64 201.57 521.43 201.57C534.22 201.57 544.6 211.95 544.6 224.74C544.6 237.53 534.22 247.91 521.43 247.91Z" id="c2pAxYSsnw"></path><path d="M484.86 385.43C472.14 384.14 458.94 381.7 460.24 368.98C460.9 362.49 480.12 359.58 484.86 355.83C489.42 352.23 489.13 339.19 495.37 339.82C508.09 341.11 512.51 352 511.22 364.72C509.93 377.45 497.59 386.73 484.86 385.43Z" id="cCBJPjcF4"></path><path d="M518.6 216.92L544.6 223L511.33 365.43L485.33 359.36L518.6 216.92Z" id="aaJBJak6Lu"></path><path d="M481.98 359.67L487.17 385.86L233.11 436.2L227.92 410.01L481.98 359.67Z" id="f1G9U7WkSR"></path><path d="M249.15 416.04C249.15 428.83 242.91 436.2 230.12 436.2C217.33 436.2 202.81 425.82 202.81 413.03C202.81 400.24 209.65 389.86 222.44 389.86C228.58 389.86 228.81 403.63 232.96 407.54C237.45 411.76 249.15 409.39 249.15 416.04Z" id="a2ToiB1DPY"></path><path d="M204.12 409.86L230.12 415.93L215.08 480.31L189.09 474.23L204.12 409.86Z" id="a7DRVFCuh"></path><path d="M508.94 470.58L508.66 497.27L190.74 493.95L191.02 467.26L508.94 470.58Z" id="e4TmtYyC2n"></path><path d="M186.21 556.77C160.41 556.77 139.46 535.82 139.46 510.02C139.46 484.22 160.41 463.27 186.21 463.27C212.01 463.27 232.96 484.22 232.96 510.02C232.96 535.82 212.01 556.77 186.21 556.77Z" id="iKFconE7A"></path><path d="M186.21 530.75C174.77 530.75 165.48 521.46 165.48 510.02C165.48 498.58 174.77 489.29 186.21 489.29C197.65 489.29 206.94 498.58 206.94 510.02C206.94 521.46 197.65 530.75 186.21 530.75Z" id="amHhRHkVe"></path><path d="M497.85 556.77C472.05 556.77 451.1 535.82 451.1 510.02C451.1 484.22 472.05 463.27 497.85 463.27C523.65 463.27 544.6 484.22 544.6 510.02C544.6 535.82 523.65 556.77 497.85 556.77Z" id="d4DCCX0J7"></path><path d="M500.13 530.75C488.69 530.75 479.4 521.46 479.4 510.02C479.4 498.58 488.69 489.29 500.13 489.29C511.57 489.29 520.86 498.58 520.86 510.02C520.86 521.46 511.57 530.75 500.13 530.75Z" id="b2ThWKR15E"></path></defs><g><g><g><use xlink:href="#bGNHzQnD4" opacity="1" fill="#d52237" fill-opacity="1"></use><g><use xlink:href="#bGNHzQnD4" opacity="1" fill-opacity="0" stroke="#000000" stroke-width="1" stroke-opacity="0"></use></g></g><g><use xlink:href="#bOTiJaISN" opacity="1" fill="#d52237" fill-opacity="1"></use><g><use xlink:href="#bOTiJaISN" opacity="1" fill-opacity="0" stroke="#000000" stroke-width="1" stroke-opacity="0"></use></g></g><g><use xlink:href="#d1zHdrMyFL" opacity="1" fill="#d52237" fill-opacity="1"></use><g><use xlink:href="#d1zHdrMyFL" opacity="1" fill-opacity="0" stroke="#000000" stroke-width="1" stroke-opacity="0"></use></g></g><g><use xlink:href="#agMvTNpiD" opacity="1" fill="#d52237" fill-opacity="1"></use><g><use xlink:href="#agMvTNpiD" opacity="1" fill-opacity="0" stroke="#000000" stroke-width="1" stroke-opacity="0"></use></g></g><g><use xlink:href="#c2pAxYSsnw" opacity="1" fill="#d52237" fill-opacity="1"></use><g><use xlink:href="#c2pAxYSsnw" opacity="1" fill-opacity="0" stroke="#000000" stroke-width="1" stroke-opacity="0"></use></g></g><g><use xlink:href="#cCBJPjcF4" opacity="1" fill="#d52237" fill-opacity="1"></use><g><use xlink:href="#cCBJPjcF4" opacity="1" fill-opacity="0" stroke="#000000" stroke-width="1" stroke-opacity="0"></use></g></g><g><use xlink:href="#aaJBJak6Lu" opacity="1" fill="#d52237" fill-opacity="1"></use><g><use xlink:href="#aaJBJak6Lu" opacity="1" fill-opacity="0" stroke="#000000" stroke-width="1" stroke-opacity="0"></use></g></g><g><use xlink:href="#f1G9U7WkSR" opacity="1" fill="#d52237" fill-opacity="1"></use><g><use xlink:href="#f1G9U7WkSR" opacity="1" fill-opacity="0" stroke="#000000" stroke-width="1" stroke-opacity="0"></use></g></g><g><use xlink:href="#a2ToiB1DPY" opacity="1" fill="#d52237" fill-opacity="1"></use><g><use xlink:href="#a2ToiB1DPY" opacity="1" fill-opacity="0" stroke="#000000" stroke-width="1" stroke-opacity="0"></use></g></g><g><use xlink:href="#a7DRVFCuh" opacity="1" fill="#d52237" fill-opacity="1"></use><g><use xlink:href="#a7DRVFCuh" opacity="1" fill-opacity="0" stroke="#000000" stroke-width="1" stroke-opacity="0"></use></g></g><g><use xlink:href="#e4TmtYyC2n" opacity="1" fill="#d52237" fill-opacity="1"></use><g><use xlink:href="#e4TmtYyC2n" opacity="1" fill-opacity="0" stroke="#000000" stroke-width="1" stroke-opacity="0"></use></g></g><g><use xlink:href="#iKFconE7A" opacity="1" fill="#d52237" fill-opacity="1"></use><g><use xlink:href="#iKFconE7A" opacity="1" fill-opacity="0" stroke="#000000" stroke-width="1" stroke-opacity="0"></use></g></g><g><use xlink:href="#amHhRHkVe" opacity="1" fill="#ffffff" fill-opacity="1"></use><g><use xlink:href="#amHhRHkVe" opacity="1" fill-opacity="0" stroke="#000000" stroke-width="1" stroke-opacity="0"></use></g></g><g><use xlink:href="#d4DCCX0J7" opacity="1" fill="#d52237" fill-opacity="1"></use><g><use xlink:href="#d4DCCX0J7" opacity="1" fill-opacity="0" stroke="#000000" stroke-width="1" stroke-opacity="0"></use></g></g><g><use xlink:href="#b2ThWKR15E" opacity="1" fill="#ffffff" fill-opacity="1"></use><g><use xlink:href="#b2ThWKR15E" opacity="1" fill-opacity="0" stroke="#000000" stroke-width="1" stroke-opacity="0"></use></g></g></g></g></svg>