<?xml version="1.0" encoding="UTF-8"?>
<!DOCTYPE svg PUBLIC "-//W3C//DTD SVG 1.1//EN" "http://www.w3.org/Graphics/SVG/1.1/DTD/svg11.dtd">
<!-- Creator: CorelDRAW 2018 (64-Bit) -->
<svg xmlns="http://www.w3.org/2000/svg" xml:space="preserve" width="172.531mm" height="50.8594mm" version="1.1" style="shape-rendering:geometricPrecision; text-rendering:geometricPrecision; image-rendering:optimizeQuality; fill-rule:evenodd; clip-rule:evenodd"
viewBox="0 0 29903.61 8815.11"
 xmlns:xlink="http://www.w3.org/1999/xlink">
 <defs>
  <style type="text/css">
   <![CDATA[
    .fil0 {fill:#061B4D}
   ]]>
  </style>
 </defs>
 <g id="Слой_x0020_1">
  <metadata id="CorelCorpID_0Corel-Layer"/>
  <path class="fil0" d="M0.02 4316.46c0,839.82 264.49,1617.97 714.3,2251.22l2842.08 -6101.16c-1984.81,127.44 -3558.36,1801.38 -3556.38,3849.96l0 -0.02zm29050.2 3780.38c-34.77,104.29 -90.77,183.46 -169.98,243.26 -79.12,59.88 -171.78,88.85 -279.88,88.85 -137.08,-0.03 -250.99,-48.24 -341.78,-142.85 -92.62,-96.61 -137.13,-212.37 -137.13,-349.47 0.03,-139.04 46.4,-256.8 139.02,-351.41 90.82,-96.51 206.67,-144.79 343.72,-144.79 106.21,-0.02 196.9,28.94 274.15,83.02 75.36,55.98 131.31,135.14 167.95,235.53l-150.55 0c-54.02,-121.66 -154.45,-183.43 -299.31,-183.43 -100.3,-0.02 -179.48,34.73 -239.36,102.38 -59.83,67.54 -88.81,154.41 -88.81,256.78 0,100.39 28.94,183.38 88.81,252.91 63.68,71.43 142.84,108.08 243.29,108.08 67.51,0 129.28,-17.3 181.45,-52.1 54.11,-34.77 92.64,-83.04 117.77,-146.7l150.64 -0.05zm-965.37 -633.29l-532.92 1351.56 -148.71 0 169.96 -426.74 -380.34 -924.82 152.49 0 299.31 737.58 5.77 -3.87 281.84 -733.71 152.59 0zm-946.1 1.89c0,131.34 -42.45,229.84 -131.33,297.41 -79.12,63.66 -185.33,94.62 -318.5,94.62l-181.5 0 0 548.31 -156.41 0 0 -1320.67 339.85 0c133.13,0 239.38,28.96 318.52,86.94 86.94,65.65 129.37,164.15 129.37,293.44l0 -0.03zm-160.2 9.71l0 0c0,-164.12 -98.5,-247.12 -295.48,-247.12l-175.65 -0.02 0 486.55 167.97 0c202.7,0 303.14,-79.14 303.14,-239.41l0.02 0zm-1884.47 -11.6l625.61 0 0 129.4 -241.39 0 0 812.82 -142.9 0 0 -812.82 -241.32 0 0 -129.4zm-111.98 942.22l-140.93 0 0 -420.86 -474.94 0 0 420.86 -141.02 0 0 -942.22 141.02 0 0 397.71 474.94 0 0 -397.71 140.93 0 0 942.22zm-951.89 0l-140.93 0 0 -139.04c-90.72,106.2 -204.68,160.29 -343.68,160.29 -138.97,-0.03 -254.89,-46.31 -347.53,-140.93 -92.69,-94.62 -139.01,-212.37 -139.01,-351.4 0,-139.02 46.31,-254.87 139.01,-351.45 94.63,-94.55 208.56,-142.84 347.53,-142.84 142.89,-0.02 256.85,57.89 343.68,169.86l0 -146.72 140.93 0 0 942.22zm-478.77 -832.14c-96.58,-0.03 -177.64,36.64 -243.29,108.1 -67.56,71.44 -100.41,156.39 -100.41,254.89 0,96.47 32.83,181.45 98.41,252.88 65.67,71.44 148.71,106.2 245.29,106.2 92.64,0 171.78,-36.64 237.45,-109.99 67.58,-71.46 100.39,-156.39 100.39,-249.08 0,-96.54 -32.84,-179.55 -98.48,-252.91 -65.67,-73.45 -144.81,-110.08 -239.36,-110.08l0 0zm-538.67 832.14l-152.59 0 -270.26 -724.06 -3.88 3.88 -266.47 720.17 -152.49 0 362.96 -942.22 119.75 0 362.99 942.22zm-940.33 0l-137.05 0 0 -810.91 -465.32 0 0 810.91 -137.13 0 0 -942.22 739.5 0 0 942.22zm-936.41 0l-139.02 0 0 -658.37c0,-9.64 0,-25.15 0,-44.41 0,-21.28 0,-36.66 0,-46.33l-312.78 749.1 -117.76 0 -314.74 -749.1c0,9.65 -0.02,25.06 -0.02,46.33 0.02,19.26 0,34.79 0,44.41l0.02 658.37 -139.02 0 0 -942.22 202.75 0 306.99 774.25 310.87 -774.25 202.7 0 0 942.22zm-1243.39 0l-156.41 0 0 -1065.76 -700.88 1065.76 -154.48 0 0 -1320.67 156.41 0 0 1065.76 698.96 -1065.76 156.41 0 0 1320.67zm-1623.83 0l-152.49 0 -270.35 -724.06 -3.83 3.88 -266.45 720.17 -154.41 0 362.99 -942.22 121.57 0 362.97 942.22zm-938.32 0l-140.93 0 0 -139.04c-90.72,106.2 -204.68,160.29 -343.72,160.29 -139.01,-0.03 -254.8,-46.31 -347.5,-140.93 -92.69,-94.62 -139.02,-212.37 -139.02,-351.4 0.02,-139.02 46.31,-254.87 139.02,-351.45 94.62,-94.55 208.49,-142.84 347.5,-142.84 142.92,-0.02 256.8,57.89 343.72,169.86l0 -146.72 140.93 0 0 942.22zm-478.84 -832.14c-96.51,-0.03 -177.64,36.64 -243.22,108.1 -67.63,71.44 -100.48,156.39 -100.48,254.89 0.02,96.47 32.83,181.45 98.48,252.88 65.69,71.44 146.72,106.2 245.22,106.2 92.71,0 171.85,-36.64 237.52,-109.99 67.58,-71.46 100.39,-156.39 100.39,-249.08 0,-96.54 -32.84,-179.55 -98.5,-252.91 -65.59,-73.45 -144.81,-110.08 -239.41,-110.08l0 0zm-1181.63 -110.08l625.56 0 0 129.4 -241.32 0 0 812.82 -142.84 0 0 -812.82 -241.4 0 0 -129.4zm-111.97 942.22l-140.93 0 0 -420.86 -474.94 0 0 420.86 -140.98 0 0 -942.22 140.98 0 0 397.71 474.94 0 0 -397.71 140.93 0 0 942.22zm-907.45 -424.8l-818.67 0c7.78,98.52 40.59,175.71 100.41,229.79 59.85,55.97 139.02,83.02 237.5,83.02 148.69,0 250.99,-54.01 306.99,-160.2l160.27 0c-102.31,196.9 -258.75,295.36 -465.29,295.36 -142.89,-0.03 -258.77,-46.33 -351.46,-140.93 -90.7,-94.65 -137.05,-212.39 -137.05,-355.28 0,-139.02 46.31,-256.8 140.93,-351.4 92.64,-94.63 208.56,-142.9 349.49,-142.9 148.71,0 268.37,54.08 355.19,162.25 81.15,100.37 121.67,227.83 121.67,380.34l0.02 -0.05zm-818.67 -123.51l670.03 0c-21.25,-187.31 -133.23,-281.93 -336,-281.93 -88.81,-0.02 -160.2,27.06 -220.07,77.25 -57.91,50.21 -96.52,117.76 -113.96,204.68l0 0zm-204.68 793.51l-148.61 0 0 -245.2 -866.96 0 0 245.2 -152.47 0 0 -388.12 90.79 0 420.86 -1177.75 144.79 0 422.86 1177.75 88.74 0 0 388.12zm-247.11 -388.12l-334.03 -967.25 -5.77 3.87 -337.86 963.38 677.66 0zm-1517.55 142.92l-140.95 0 0 -420.86 -475.01 0 0 420.86 -140.91 0 0 -942.22 140.91 0 0 397.71 475.01 0 0 -397.71 140.95 0 0 942.22zm-951.89 0l-140.91 0 0 -735.62 -511.68 735.62 -146.72 0 0 -942.22 140.95 0 0 735.62 513.56 -735.62 144.81 0 0 942.22zm-901.68 198.89l-133.23 0 0 -198.89 -633.25 0 0 198.89 -131.31 0 0 -198.89 -139.01 0 -156.39 -407.4 -532.85 0 -152.59 407.4 -167.95 0 515.53 -1320.67 142.84 0 490.42 1255 0 -63.68 85.01 0 295.39 -812.87 135.14 0 297.32 812.87 84.93 0 0 328.24zm-231.65 -328.24l-214.35 -613.98 -5.72 3.88 -214.35 610.1 434.42 0zm-1017.55 -420.88l-206.58 -550.28 -5.79 3.87 -210.47 546.42 422.84 0zm-1702.88 -5533.62c5158.93,-2444.32 10601.77,-3075.64 12737.17,-1332.14 544.49,444 826.35,1002.02 870.83,1639.2 -144.79,-415.18 -407.45,-787.79 -797.46,-1104.47 -2164.35,-1766.63 -7516.42,-1235.62 -12652.26,1088.99 249.12,513.59 390.03,1090.9 390.03,1702.97 0,1143 -492.34,2170.14 -1270.44,2876.82l5.79 -5.84 -1164.28 -3535.24c671.96,-374.57 1355.46,-718.22 2042.79,-1027.11l-3.88 -11.61c-11.56,-23.12 -25.06,-48.27 -36.64,-73.33l0 0 -1.98 -1.98 0 -1.92c-15.46,-28.91 -28.94,-55.97 -40.52,-75.31 -19.34,-36.69 -48.31,-86.85 -75.33,-129.35 -592.73,279.99 -1181.58,585.02 -1762.77,913.27 -71.46,40.49 -142.85,83.02 -214.3,123.61l-953.83 -2896.18c1243.45,108.08 2315.01,822.47 2927.06,1849.62l0.02 0zm-6313.61 4288.24l9.62 13.57 -9.62 -13.57zm54.08 71.46c697.02,907.45 1782.04,1492.49 3004.26,1492.49 534.82,-0.02 1044.51,-111.98 1507.89,-314.74 -15.46,5.77 -28.96,11.58 -44.42,17.45l-1069.65 -3651.17c-1312.94,807.08 -2436.59,1666.28 -3336.37,2529.34l-9.6 -7.71c-17.38,-21.25 -34.82,-42.48 -52.12,-65.64l0 -0.02zm4544.98 1162.36c13.48,-5.86 28.94,-13.55 44.41,-21.27 -15.44,7.71 -30.94,15.41 -44.41,21.27l0 0zm930.64 -594.69c11.56,-11.6 25.05,-23.24 36.69,-34.82 -11.65,11.58 -25.13,23.23 -36.71,34.82l0.02 0zm884.31 -4749.73c-7.78,-15.41 -15.5,-28.94 -23.24,-42.43 7.76,13.47 15.46,27.04 23.23,42.43l0.02 0zm-6153.42 3875.05c845.7,-820.6 1892.19,-1639.24 3112.43,-2419.21l-473.03 -1614.18 -2639.4 4033.38zm22968.36 -3438.66c0,-343.72 111.98,-585.02 335.93,-724.02 223.97,-140.96 621.74,-210.47 1193.21,-210.47 758.86,-0.03 1206.74,158.3 1343.79,476.92l1384.42 3141.26c21.28,42.53 55.97,63.8 102.3,63.8 50.23,-0.03 73.37,-21.27 73.37,-63.75l0.02 -3554.58c0,-42.41 34.77,-63.64 102.35,-63.64l1291.72 -0.03c69.47,0 104.18,21.27 104.18,63.7l0.03 3765.01c0,84.95 -27.07,169.89 -83.06,254.89 -206.57,316.63 -527.06,476.86 -961.51,476.86l-949.93 -0.03c-179.55,0 -357.2,-52.07 -536.75,-156.35 -179.53,-104.22 -291.6,-208.51 -341.72,-314.67l-1394.05 -3160.75c-13.5,-38.55 -44.37,-57.87 -92.66,-57.87 -48.2,-0.02 -73.35,19.36 -73.35,57.91l0 3568.06c0,42.46 -32.84,63.71 -102.38,63.71l-1291.6 -0.03c-69.57,0 -104.31,-21.21 -104.31,-63.66l0 -3562.24zm-2241.57 -934.52l1291.69 0c67.54,0 104.2,21.27 104.2,63.7l0 4433.05c0,42.46 -36.66,63.71 -104.2,63.71l-1291.69 -0.03c-69.54,0 -102.38,-21.21 -102.38,-63.66l0 -4433.08c0,-42.41 32.83,-63.64 102.36,-63.64l0.02 -0.03zm-5299.96 3670.32c0,42.53 34.73,61.88 102.31,61.88l1849.69 0c227.83,0 440.21,-63.75 641,-193.1 198.89,-129.35 299.22,-264.54 299.22,-403.5l0 -1691.41c0,-152.49 -110.01,-293.4 -330.16,-422.82 -220.05,-129.35 -449.81,-194.94 -693.1,-194.94l-1766.65 0c-67.54,0 -102.31,21.18 -102.31,63.7l0 2780.19zm-1498.26 826.42l0 -4433.07c0,-42.41 34.73,-63.64 102.28,-63.64l3523.62 -0.03c729.85,0 1305.26,167.98 1726.12,502.03 359.18,283.78 536.8,646.77 536.8,1087l0 1527.2c0,378.47 -177.64,700.92 -536.8,973.17 -420.86,312.76 -992.41,471.06 -1714.53,471.06l-3535.22 -0.03c-67.54,0 -102.28,-21.21 -102.28,-63.66l0 -0.02zm-3977.38 -3556.45c-42.52,-75.33 -83.06,-113.86 -123.58,-113.86 -34.72,0 -73.35,38.55 -113.87,113.89l-724.04 1451.86 -9.67 17.38 0 13.57c0,28.93 27.04,44.42 81.12,44.42l1540.72 0c54.09,0 83.02,-15.48 83.02,-44.44l0 -13.55 -11.56 -17.38 -722.13 -1451.89zm-1477.04 -565.74c81.12,-169.87 264.56,-279.92 546.38,-330.11 158.38,-28.94 426.74,-44.41 807.08,-44.41 391.95,-0.03 666.08,15.46 824.45,44.41 289.62,50.16 476.85,162.18 557.98,330.13l2077.52 4147.24c0,25.13 -23.17,38.65 -71.46,38.65l-1353.46 -0.03c-69.54,0 -113.89,-19.26 -135.16,-57.87l-546.38 -1100.51c-21.25,-42.52 -67.58,-63.73 -135.14,-63.73l-2428.9 -0.02c-67.65,0 -111.98,25.17 -133.23,71.48l-548.38 1086.98c-19.27,42.46 -65.6,63.71 -133.16,63.71l-1343.88 -0.03c-55.97,0 -83.02,-13.47 -83.02,-38.58l2098.77 -4147.29z"/>
 </g>
</svg>
